<svg xmlns="http://www.w3.org/2000/svg" width="15.512" height="14.802" viewBox="0 0 15.512 14.802"><defs><style>.a{fill:#000aff;stroke:#2700ff;stroke-width:0.5px;fill-rule:evenodd;}</style></defs><g transform="translate(0.254 0.25)"><path class="a" d="M7.644.434,9.266,4.563a1.018,1.018,0,0,0,.885.639l4.473.295c.246,0,.344.295.147.492L11.33,8.839a.971.971,0,0,0-.344.983l1.13,4.374a.284.284,0,0,1-.442.295L7.89,12.083a.976.976,0,0,0-1.032,0L3.073,14.491a.29.29,0,0,1-.442-.295l1.13-4.374a.971.971,0,0,0-.344-.983L-.023,5.988c-.2-.2-.1-.492.147-.492L4.6,5.2a1.018,1.018,0,0,0,.885-.639L7.1.434A.29.29,0,0,1,7.644.434Z" transform="translate(0.128 -0.25)"/></g></svg>